<?xml version="1.0" encoding="utf-8"?>
<!-- Generator: Adobe Illustrator 19.1.0, SVG Export Plug-In . SVG Version: 6.00 Build 0)  -->
<svg version="1.1" id="Layer_1" xmlns="http://www.w3.org/2000/svg" xmlns:xlink="http://www.w3.org/1999/xlink" x="0px" y="0px"
	 viewBox="-285 413.2 24.7 15.7" style="enable-background:new -285 413.2 24.7 15.7;" xml:space="preserve">
<style type="text/css">
	.st0{fill:#FFFFFF;}
</style>
<g>
	<g>
		<path class="st0" d="M-279.8,416.9c1.4,0,2.3,0.8,2.3,2c0,1.3-0.8,2-2.3,2h-0.9v1.8h-0.6v-5.8H-279.8z M-279.8,420.4
			c1,0,1.5-0.6,1.5-1.5s-0.6-1.5-1.5-1.5h-0.9v3H-279.8z"/>
		<path class="st0" d="M-277,420.4c0-1.5,0.9-2.5,2.2-2.5c1.4,0,2.2,1,2.2,2.5s-0.9,2.5-2.2,2.5C-276.1,422.9-277,421.9-277,420.4z
			 M-273.2,420.4c0-1.2-0.6-2-1.6-2s-1.6,0.8-1.6,2c0,1.2,0.6,2,1.6,2S-273.2,421.6-273.2,420.4z"/>
		<path class="st0" d="M-268,419.3v3.5h-0.6v-3.5c0-0.6-0.3-0.9-0.9-0.9c-1,0-1.5,0.8-1.5,0.8v3.6h-0.6V418h0.5l0.1,0.6
			c0,0,0.5-0.7,1.6-0.7C-268.4,417.9-268,418.4-268,419.3z"/>
		<path class="st0" d="M-263.5,422.8l-0.1-0.5c0,0-0.5,0.6-1.5,0.6c-1.2,0-1.9-1-1.9-2.5s0.7-2.5,1.9-2.5c1,0,1.5,0.8,1.5,0.8
			l-0.1-0.6v-1.7h0.6v6.4H-263.5z M-266.4,420.4c0,1.2,0.5,2,1.4,2s1.3-0.6,1.3-0.6v-2.5c0,0-0.4-0.8-1.3-0.8
			C-265.9,418.4-266.4,419.1-266.4,420.4z"/>
	</g>
	<g>
		<path class="st0" d="M-279.1,424.6c1.2,1.2,2.7,1.8,4.2,1.8s3.1-0.6,4.2-1.8l-0.3-0.3c-1.1,1.1-2.5,1.6-4,1.6
			c-1.4,0-2.9-0.5-4-1.6L-279.1,424.6L-279.1,424.6z"/>
	</g>
	<g>
		<path class="st0" d="M-280.6,425.5c1.6,1.6,3.8,2.4,5.9,2.4c2.1,0,4.3-0.8,5.9-2.4l-0.3-0.3c-1.6,1.6-3.6,2.3-5.6,2.3
			s-4.1-0.8-5.6-2.3L-280.6,425.5L-280.6,425.5z"/>
	</g>
	<g>
		<path class="st0" d="M-277.5,423.5c0.7,0.7,1.7,1.1,2.7,1.1s2-0.4,2.7-1.1l-0.3-0.3c-0.7,0.7-1.6,1-2.4,1c-0.9,0-1.8-0.3-2.4-1
			L-277.5,423.5L-277.5,423.5z"/>
	</g>
</g>
</svg>
